<svg id="Layer_1" enable-background="new 0 0 496.002 496.002" height="512" viewBox="0 0 496.002 496.002" width="512" xmlns="http://www.w3.org/2000/svg"><path d="m431.866 106.109c-33.67-1.873-62.467 20.899-69.966 51.892h-67.85c-6.36-15.81-21.85-27-39.91-27h-19.28c-8.837 0-16 7.163-16 16v54c0 8.837 7.163 16 16 16h19.28c18.06 0 33.55-11.19 39.91-27h67.85c2.61 10.8 7.81 20.6 14.91 28.71l-35.69 57.29h-166.29l-11.94-29.86c-6.11-15.27-20.69-25.14-37.14-25.14h-85.75c-22.091 0-40 17.909-40 40v7c0 22.091 17.909 40 40 40h17c4.418 0 8 3.582 8 8v34c0 4.418-3.582 8-8 8h-10.551c-8.618 0-16.03 6.626-16.431 15.234-.428 9.188 6.888 16.766 15.982 16.766h69.551c8.618 0 16.03-6.626 16.431-15.235.428-9.188-6.888-16.765-15.982-16.765h-11c-4.418 0-8-3.582-8-8v-34c0-4.418 3.582-8 8-8h192c4.418 0 8 3.582 8 8v34c0 4.418-3.582 8-8 8h-10.551c-8.618 0-16.03 6.626-16.431 15.234-.428 9.188 6.888 16.766 15.982 16.766h69.551c8.618 0 16.03-6.626 16.431-15.235.428-9.188-6.888-16.765-15.982-16.765h-11c-4.418 0-8-3.582-8-8v-34c0-4.418 3.582-8 8-8 4.699 0 13.276.978 18.58-7.54l39.39-63.23c45.744 18.18 95.342-17.171 92.948-66.595-1.673-34.547-29.517-62.606-64.052-64.527zm-177.726 78.892h-3.28v-22h3.28c6.07 0 11 4.93 11 11s-4.93 11-11 11z"/></svg>