<svg id="Capa_1" enable-background="new 0 0 512 512" height="512" viewBox="0 0 512 512" width="512" xmlns="http://www.w3.org/2000/svg"><path d="m140.902 381.847c9.805 0 17.781-7.976 17.781-17.781s-7.977-17.781-17.781-17.781c-9.805 0-17.781 7.977-17.781 17.781s7.977 17.781 17.781 17.781z"/><path d="m451.773 0v48.929c0 32.027-25.983 58.094-57.976 58.243v-58.21h-85.922v30.112h55.81v28.104h-20.377v30.112h20.377v74.504c0 36.91-14.373 71.61-40.472 97.709l-7.303 7.303s-166.315-47.076-171.137-47.676l-16.868-103.02c-3.377-20.62-20.993-35.586-41.888-35.586h-47.49v30.112h47.49c6.071 0 11.19 4.349 12.172 10.341l16.27 99.364c-13.319 2.768-26.048 8.486-37.349 17.012-23.661 17.852-37.232 45.09-37.232 74.73 0 34.875 19.172 65.353 47.528 81.458v38.348h-57.291v30.111h374.265v-30.112h-53.498v-32.366c23.027-10.647 39.051-33.953 39.051-60.944 0-27.21-16.682-51.684-41.389-61.975 29.221-31.263 45.254-71.8 45.254-114.807v-74.508c48.597-.149 88.088-39.727 88.088-88.358v-48.93zm-310.871 316.172c23.148 0 42.511 16.508 46.94 38.369l38.625 8.476 5.847-14.588 27.951 11.203-21.723 54.199-27.951-11.203 4.519-11.274-30.932-6.788c-7.696 16.179-24.198 27.393-43.274 27.393-26.409 0-47.893-21.485-47.893-47.893-.002-26.409 21.482-47.894 47.891-47.894zm-23.383 165.716v-27.563c5.192.896 10.528 1.369 15.972 1.369h187.278v26.194z"/></svg>