<svg id="Layer_1" enable-background="new 0 0 512.005 512.005" height="512" viewBox="0 0 512.005 512.005" width="512" xmlns="http://www.w3.org/2000/svg"><path d="m505.605 459.518c-7.07-5.302-17.099-3.87-22.4 3.2-10.423 13.897-28.665 20.081-45.388 15.385l-147.051-41.278 30.869-66.158c10.82-23.19 1.58-50.75-21.03-62.73l-17.67-9.35 23.68-68.06 129.88-10.6c3.372 2.187 6.232 4.39 11.5 4.39 7.555 0 12.79-5.743 12.79-6.38l20.52-1.67c8.81-.72 15.37-8.44 14.65-17.25-.721-8.821-8.462-15.371-17.25-14.65l-33.92 2.77c-54.03-35.118-31.665-20.58-102.35-66.53 19.98-10.84 33.57-32.01 33.57-56.29 0-35.29-28.71-64-64-64-45.966 0-76.837 47.237-58.86 89.11-15.509 5.48-29.13 18.051-35.47 35.48l-18.28 50.26c32.455-2.654 112.834-9.212 130.17-10.62 1.38-4 2.33-8.11 2.82-12.29 21.702 14.104 7.988 5.19 60.22 39.14-29.484 2.407-211.897 17.298-248.6 20.29v-3.37c0-8.84-7.16-16-16-16s-16 7.16-16 16v5.98c-25.477 2.088-24.104 1.977-25.3 2.07-8.81.72-15.37 8.44-14.65 17.25.69 8.37 7.69 14.7 15.93 14.7 1.038 0-.237.077 24.02-1.9v1.9c0 8.84 7.16 16 16 16s16-7.16 16-16v-4.52l39.48-3.22c2.284 27.118 18.227 51.224 42.27 63.95l59.87 31.69c7.54 3.99 10.62 13.18 7.01 20.91l-33.096 70.932-239.211-67.146c-8.508-2.388-17.342 2.573-19.729 11.081-2.389 8.508 2.572 17.341 11.08 19.729l417.488 117.19c29.535 8.289 61.161-2.363 79.636-26.995 5.303-7.07 3.87-17.098-3.198-22.4z"/></svg>